<?xml version="1.0" encoding="utf-8"?>
<!-- Generator: Adobe Illustrator 19.0.0, SVG Export Plug-In . SVG Version: 6.00 Build 0)  -->
<svg version="1.1" id="Capa_1" xmlns="http://www.w3.org/2000/svg" xmlns:xlink="http://www.w3.org/1999/xlink" x="0px" y="0px"
	 viewBox="0 0 277.5 37.5" style="enable-background:new 0 0 277.5 37.5;" xml:space="preserve">
<style type="text/css">
	.st0{fill:#76132D;}
</style>
<g id="XMLID_28_">
	<path id="XMLID_29_" class="st0" d="M9.7,27.5c-2.6-2.3-3.3-5.3-3.3-7.9c0-1.8,0.6-5,3.1-7.3c1.9-1.8,4.5-2.8,8.4-2.8
		c1.7,0,2.6,0.1,3.9,0.3c1,0.1,1.9,0.4,2.7,0.5c0.3,0,0.4,0.2,0.4,0.3c0,0.2-0.1,0.5-0.1,1.5c-0.1,0.9,0,2.4-0.1,2.9
		c0,0.4-0.1,0.6-0.3,0.6c-0.2,0-0.3-0.2-0.3-0.6c0-0.8-0.4-1.8-1-2.5c-0.9-0.9-3-1.7-5.4-1.7c-2.3,0-3.8,0.6-5,1.7
		c-1.9,1.8-2.5,4.3-2.5,6.9c0,6.4,4.8,9.5,8.4,9.5c2.4,0,3.8-0.3,4.9-1.5c0.5-0.5,0.8-1.3,0.9-1.8c0.1-0.4,0.1-0.5,0.3-0.5
		c0.2,0,0.2,0.2,0.2,0.4c0,0.3-0.3,2.6-0.6,3.6c-0.1,0.5-0.2,0.6-0.7,0.8c-1.1,0.4-3.1,0.6-4.8,0.6C15.3,30.5,12.2,29.7,9.7,27.5z"
		/>
	<path id="XMLID_31_" class="st0" d="M32.6,23.3c-0.1,0-0.2,0.1-0.2,0.2l-1.4,3.7c-0.3,0.7-0.4,1.3-0.4,1.6c0,0.5,0.2,0.8,1.1,0.8
		H32c0.3,0,0.4,0.1,0.4,0.2c0,0.2-0.2,0.3-0.5,0.3c-0.9,0-2-0.1-2.8-0.1c-0.3,0-1.8,0.1-3.2,0.1c-0.3,0-0.5-0.1-0.5-0.3
		c0-0.2,0.1-0.2,0.3-0.2c0.2,0,0.6,0,0.8-0.1c1.2-0.2,1.7-1.1,2.3-2.4l6.7-16.6c0.3-0.8,0.5-1.1,0.7-1.1c0.2,0,0.4,0.2,0.7,0.9
		c0.6,1.5,4.9,12.1,6.6,16.2c1,2.4,1.8,2.8,2.3,2.9c0.4,0.1,0.8,0.1,1.1,0.1c0.2,0,0.3,0,0.3,0.2c0,0.2-0.2,0.3-1.2,0.3
		c-1,0-2.9,0-5-0.1c-0.5,0-0.8,0-0.8-0.2c0-0.2,0.1-0.2,0.4-0.2c0.2-0.1,0.4-0.3,0.2-0.6l-2.1-5.5c-0.1-0.1-0.1-0.2-0.3-0.2H32.6z
		 M38,21.9c0.1,0,0.2-0.1,0.1-0.2l-2.4-6.6c0-0.1-0.1-0.2-0.1-0.2s-0.1,0.1-0.2,0.2L33,21.7c0,0.1,0,0.2,0.1,0.2H38z"/>
	<path id="XMLID_34_" class="st0" d="M50.2,17.6c0-4.1,0-4.8-0.1-5.7c-0.1-0.9-0.3-1.3-1.1-1.5c-0.2-0.1-0.7-0.1-1-0.1
		c-0.3,0-0.5-0.1-0.5-0.2c0-0.2,0.2-0.2,0.6-0.2c1.4,0,3.1,0.1,3.6,0.1c1.3,0,2.3-0.1,3.3-0.1c4.8,0,5.7,2.6,5.7,4
		c0,2.2-1.3,3.5-2.7,4.7c2.2,0.7,4.9,2.6,4.9,5.8c0,2.9-2.2,5.8-7.1,5.8c-0.3,0-1.1-0.1-1.9-0.1C53,30,52.2,30,51.8,30
		c-0.3,0-0.9,0-1.5,0c-0.6,0-1.3,0.1-1.8,0.1c-0.3,0-0.5-0.1-0.5-0.3c0-0.1,0.1-0.2,0.4-0.2c0.4,0,0.7-0.1,1-0.1
		c0.5-0.1,0.7-0.7,0.8-1.5c0.1-1.1,0.1-3.2,0.1-5.7V17.6z M53.4,18.1c0,0.2,0.1,0.3,0.2,0.3c0.2,0.1,0.6,0.1,1.3,0.1
		c0.9,0,1.5-0.1,1.9-0.5c0.7-0.6,1.1-1.5,1.1-2.8c0-1.8-1-4.1-3.3-4.1c-0.4,0-0.6,0-0.9,0.1c-0.2,0.1-0.2,0.2-0.2,0.5V18.1z
		 M56.9,20.2c-0.6-0.4-1.2-0.6-2.2-0.6c-0.5,0-0.7,0-1.1,0c-0.1,0-0.2,0.1-0.2,0.2v6.3c0,1.8,0.1,2.2,0.9,2.6
		c0.7,0.3,1.3,0.3,1.9,0.3c1.2,0,3.2-0.6,3.2-3.4C59.5,23.9,59,21.6,56.9,20.2z"/>
	<path id="XMLID_38_" class="st0" d="M70.3,23.3c-0.1,0-0.2,0.1-0.2,0.2l-1.4,3.7c-0.3,0.7-0.4,1.3-0.4,1.6c0,0.5,0.2,0.8,1.1,0.8
		h0.4c0.3,0,0.4,0.1,0.4,0.2c0,0.2-0.2,0.3-0.5,0.3c-0.9,0-2-0.1-2.8-0.1c-0.3,0-1.8,0.1-3.2,0.1c-0.3,0-0.5-0.1-0.5-0.3
		c0-0.2,0.1-0.2,0.3-0.2c0.2,0,0.6,0,0.8-0.1c1.2-0.2,1.7-1.1,2.3-2.4l6.7-16.6c0.3-0.8,0.5-1.1,0.7-1.1c0.2,0,0.4,0.2,0.7,0.9
		c0.6,1.5,4.9,12.1,6.6,16.2c1,2.4,1.8,2.8,2.4,2.9c0.4,0.1,0.8,0.1,1.1,0.1c0.2,0,0.3,0,0.3,0.2c0,0.2-0.2,0.3-1.2,0.3
		c-1,0-2.9,0-5-0.1c-0.5,0-0.8,0-0.8-0.2c0-0.2,0.1-0.2,0.4-0.2c0.2-0.1,0.4-0.3,0.2-0.6l-2.1-5.5c-0.1-0.1-0.1-0.2-0.3-0.2H70.3z
		 M75.7,21.9c0.1,0,0.2-0.1,0.1-0.2l-2.4-6.6c0-0.1-0.1-0.2-0.1-0.2s-0.1,0.1-0.2,0.2l-2.5,6.5c0,0.1,0,0.2,0.1,0.2H75.7z"/>
	<path id="XMLID_41_" class="st0" d="M89.4,26.4c0.1,2.1,0.4,2.8,0.9,3c0.5,0.2,1,0.2,1.4,0.2c0.3,0,0.5,0.1,0.5,0.2
		c0,0.2-0.2,0.3-0.6,0.3c-1.7,0-2.8-0.1-3.3-0.1c-0.2,0-1.5,0.1-2.9,0.1c-0.3,0-0.6,0-0.6-0.3c0-0.2,0.2-0.2,0.4-0.2
		c0.3,0,0.8,0,1.2-0.1c0.7-0.2,0.8-1,0.8-3.3l0.2-15.7c0-0.5,0.1-0.9,0.3-0.9c0.3,0,0.5,0.3,1,0.8c0.3,0.3,4.4,4.6,8.3,8.5
		c1.8,1.8,5.4,5.7,5.9,6.1h0.1l-0.3-12c0-1.6-0.3-2.1-0.9-2.4c-0.4-0.2-1-0.2-1.4-0.2c-0.3,0-0.4-0.1-0.4-0.2c0-0.2,0.3-0.2,0.7-0.2
		c1.4,0,2.7,0.1,3.2,0.1c0.3,0,1.3-0.1,2.6-0.1c0.3,0,0.6,0,0.6,0.2c0,0.2-0.2,0.2-0.5,0.2c-0.3,0-0.5,0-0.8,0.1
		c-0.7,0.2-1,0.8-1,2.3l-0.3,16.8c0,0.6-0.1,0.8-0.3,0.8c-0.3,0-0.6-0.3-0.9-0.6c-1.7-1.6-5.1-5.1-7.9-7.9c-2.9-2.9-5.9-6.1-6.4-6.6
		h-0.1L89.4,26.4z M95.9,7.1c-0.5-0.3-1-0.6-1.7-0.6c-1,0-1.6,0.7-1.8,1c-0.2,0.2-0.3,0.3-0.4,0.3s-0.2-0.1-0.2-0.2
		c0-0.1,0.1-0.4,0.2-0.5C92.4,6.4,93.5,5,94.8,5c0.9,0,1.5,0.4,2.1,0.7c0.7,0.4,1.3,0.6,1.9,0.6c1,0,1.5-0.7,1.6-0.8
		c0.2-0.2,0.3-0.3,0.4-0.3c0.1,0,0.2,0.1,0.2,0.2c0,0.1-0.1,0.3-0.2,0.5c-0.2,0.5-1.4,2-2.6,2C97.2,7.8,96.5,7.4,95.9,7.1z"/>
	<path id="XMLID_44_" class="st0" d="M114.3,23.3c-0.1,0-0.2,0.1-0.2,0.2l-1.4,3.7c-0.3,0.7-0.4,1.3-0.4,1.6c0,0.5,0.2,0.8,1.1,0.8
		h0.4c0.3,0,0.4,0.1,0.4,0.2c0,0.2-0.2,0.3-0.5,0.3c-0.9,0-2-0.1-2.8-0.1c-0.3,0-1.8,0.1-3.2,0.1c-0.3,0-0.5-0.1-0.5-0.3
		c0-0.2,0.1-0.2,0.3-0.2c0.2,0,0.6,0,0.8-0.1c1.2-0.2,1.7-1.1,2.3-2.4l6.7-16.6c0.3-0.8,0.5-1.1,0.7-1.1c0.2,0,0.4,0.2,0.7,0.9
		c0.6,1.5,4.9,12.1,6.6,16.2c1,2.4,1.8,2.8,2.4,2.9c0.4,0.1,0.8,0.1,1.1,0.1c0.2,0,0.3,0,0.3,0.2c0,0.2-0.2,0.3-1.2,0.3
		c-1,0-2.9,0-5-0.1c-0.5,0-0.8,0-0.8-0.2c0-0.2,0.1-0.2,0.4-0.2c0.2-0.1,0.4-0.3,0.2-0.6l-2.1-5.5c-0.1-0.1-0.1-0.2-0.3-0.2H114.3z
		 M119.7,21.9c0.1,0,0.2-0.1,0.1-0.2l-2.4-6.6c0-0.1-0.1-0.2-0.1-0.2s-0.1,0.1-0.2,0.2l-2.5,6.5c0,0.1,0,0.2,0.1,0.2H119.7z"/>
	<path id="XMLID_47_" class="st0" d="M143.2,22.3c0,3.4,0,5.3,0.6,5.7c0.5,0.4,1.1,0.6,3.2,0.6c1.4,0,2.5,0,3.1-0.7
		c0.3-0.3,0.6-1.1,0.7-1.6c0-0.2,0.1-0.4,0.3-0.4c0.2,0,0.2,0.1,0.2,0.5c0,0.3-0.2,2.3-0.4,3.1c-0.2,0.6-0.3,0.7-1.7,0.7
		c-1.9,0-3.3-0.1-4.5-0.1c-1.2-0.1-2.2-0.1-3.3-0.1c-0.3,0-0.9,0-1.5,0c-0.6,0-1.3,0.1-1.8,0.1c-0.3,0-0.5-0.1-0.5-0.3
		c0-0.1,0.1-0.2,0.4-0.2c0.4,0,0.7-0.1,1-0.1c0.5-0.1,0.7-0.7,0.8-1.5c0.1-1.1,0.1-3.2,0.1-5.7v-4.7c0-4.1,0-4.8-0.1-5.7
		c-0.1-0.9-0.3-1.3-1.1-1.5c-0.2-0.1-0.5-0.1-0.9-0.1c-0.3,0-0.5-0.1-0.5-0.2c0-0.2,0.2-0.2,0.6-0.2c1.3,0,2.9,0.1,3.7,0.1
		c0.6,0,2.6-0.1,3.6-0.1c0.4,0,0.6,0.1,0.6,0.2c0,0.2-0.2,0.2-0.5,0.2c-0.3,0-0.7,0-1,0.1c-0.7,0.1-0.9,0.6-1,1.5
		c-0.1,0.9-0.1,1.6-0.1,5.7V22.3z"/>
	<path id="XMLID_49_" class="st0" d="M157.6,23.3c-0.1,0-0.2,0.1-0.2,0.2l-1.4,3.7c-0.3,0.7-0.4,1.3-0.4,1.6c0,0.5,0.2,0.8,1.1,0.8
		h0.4c0.3,0,0.4,0.1,0.4,0.2c0,0.2-0.2,0.3-0.5,0.3c-0.9,0-2-0.1-2.8-0.1c-0.3,0-1.8,0.1-3.2,0.1c-0.3,0-0.5-0.1-0.5-0.3
		c0-0.2,0.1-0.2,0.3-0.2c0.2,0,0.6,0,0.8-0.1c1.2-0.2,1.7-1.1,2.3-2.4l6.7-16.6c0.3-0.8,0.5-1.1,0.7-1.1c0.2,0,0.4,0.2,0.7,0.9
		c0.6,1.5,4.9,12.1,6.6,16.2c1,2.4,1.8,2.8,2.4,2.9c0.4,0.1,0.8,0.1,1.1,0.1c0.2,0,0.3,0,0.3,0.2c0,0.2-0.2,0.3-1.2,0.3
		c-1,0-2.9,0-5-0.1c-0.5,0-0.8,0-0.8-0.2c0-0.2,0.1-0.2,0.4-0.2c0.2-0.1,0.4-0.3,0.2-0.6l-2.1-5.5c-0.1-0.1-0.1-0.2-0.3-0.2H157.6z
		 M163.1,21.9c0.1,0,0.2-0.1,0.1-0.2l-2.4-6.6c0-0.1-0.1-0.2-0.1-0.2s-0.1,0.1-0.2,0.2l-2.5,6.5c0,0.1,0,0.2,0.1,0.2H163.1z"/>
	<path id="XMLID_52_" class="st0" d="M173.5,29.8c-0.4-0.2-0.5-0.3-0.5-0.9c0-1.5,0.1-3.1,0.1-3.5c0-0.4,0.1-0.7,0.3-0.7
		c0.2,0,0.3,0.2,0.3,0.5c0,0.3,0.1,0.9,0.2,1.4c0.6,2,2.2,2.7,3.8,2.7c2.4,0,3.6-1.6,3.6-3c0-1.3-0.4-2.5-2.6-4.3l-1.2-1
		c-2.9-2.3-4-4.2-4-6.3c0-2.9,2.5-5,6.2-5c1.7,0,2.9,0.3,3.6,0.5c0.2,0.1,0.4,0.1,0.4,0.3c0,0.3-0.1,1.1-0.1,3.2
		c0,0.6-0.1,0.8-0.3,0.8c-0.2,0-0.3-0.2-0.3-0.5c0-0.2-0.1-1.1-0.7-1.8c-0.4-0.5-1.2-1.3-2.9-1.3c-2,0-3.2,1.1-3.2,2.8
		c0,1.2,0.6,2.2,2.8,3.8l0.7,0.6c3.2,2.4,4.4,4.3,4.4,6.8c0,1.5-0.6,3.4-2.5,4.6c-1.3,0.9-2.8,1.1-4.2,1.1
		C175.9,30.5,174.7,30.3,173.5,29.8z"/>
	<path id="XMLID_54_" class="st0" d="M201.9,22.3c0,3.4,0,5.3,0.6,5.7c0.5,0.4,1.1,0.6,3.2,0.6c1.4,0,2.5,0,3.1-0.7
		c0.3-0.3,0.6-1.1,0.7-1.6c0-0.2,0.1-0.4,0.3-0.4c0.2,0,0.2,0.1,0.2,0.5c0,0.3-0.2,2.3-0.4,3.1c-0.2,0.6-0.3,0.7-1.7,0.7
		c-1.9,0-3.3-0.1-4.5-0.1c-1.2-0.1-2.2-0.1-3.3-0.1c-0.3,0-0.9,0-1.5,0c-0.6,0-1.3,0.1-1.8,0.1c-0.3,0-0.5-0.1-0.5-0.3
		c0-0.1,0.1-0.2,0.4-0.2c0.4,0,0.7-0.1,1-0.1c0.5-0.1,0.7-0.7,0.8-1.5c0.1-1.1,0.1-3.2,0.1-5.7v-4.7c0-4.1,0-4.8-0.1-5.7
		c-0.1-0.9-0.3-1.3-1.1-1.5c-0.2-0.1-0.5-0.1-0.9-0.1c-0.3,0-0.5-0.1-0.5-0.2c0-0.2,0.2-0.2,0.6-0.2c1.3,0,2.9,0.1,3.7,0.1
		c0.6,0,2.6-0.1,3.6-0.1c0.4,0,0.6,0.1,0.6,0.2c0,0.2-0.2,0.2-0.5,0.2c-0.3,0-0.7,0-1,0.1c-0.7,0.1-0.9,0.6-1,1.5
		c-0.1,0.9-0.1,1.6-0.1,5.7V22.3z"/>
	<path id="XMLID_56_" class="st0" d="M214.7,17.6c0-4.1,0-4.8-0.1-5.7c-0.1-0.9-0.3-1.4-0.9-1.5c-0.3-0.1-0.6-0.1-1-0.1
		c-0.3,0-0.4-0.1-0.4-0.3c0-0.2,0.2-0.2,0.6-0.2c1,0,2.7,0.1,3.5,0.1c0.7,0,2.2-0.1,3.3-0.1c0.3,0,0.6,0.1,0.6,0.2
		c0,0.2-0.2,0.3-0.4,0.3c-0.3,0-0.5,0-0.8,0.1c-0.7,0.1-0.9,0.6-1,1.5c-0.1,0.9-0.1,1.6-0.1,5.7v4.7c0,2.6,0,4.7,0.1,5.8
		c0.1,0.7,0.3,1.2,1.1,1.3c0.4,0.1,1,0.1,1.4,0.1c0.3,0,0.4,0.1,0.4,0.2c0,0.2-0.2,0.3-0.5,0.3c-1.8,0-3.4-0.1-4.2-0.1
		c-0.6,0-2.3,0.1-3.4,0.1c-0.3,0-0.5-0.1-0.5-0.3c0-0.1,0.1-0.2,0.4-0.2c0.4,0,0.7-0.1,1-0.1c0.5-0.1,0.7-0.6,0.8-1.3
		c0.1-1.1,0.1-3.2,0.1-5.8V17.6z"/>
	<path id="XMLID_58_" class="st0" d="M230.1,22.3c0,3.4,0,5.3,0.6,5.7c0.5,0.4,1.1,0.6,3.2,0.6c1.4,0,2.5,0,3.1-0.7
		c0.3-0.3,0.6-1.1,0.7-1.6c0-0.2,0.1-0.4,0.3-0.4c0.2,0,0.2,0.1,0.2,0.5c0,0.3-0.2,2.3-0.4,3.1c-0.2,0.6-0.3,0.7-1.7,0.7
		c-1.9,0-3.3-0.1-4.5-0.1c-1.2-0.1-2.2-0.1-3.3-0.1c-0.3,0-0.9,0-1.5,0c-0.6,0-1.3,0.1-1.8,0.1c-0.3,0-0.5-0.1-0.5-0.3
		c0-0.1,0.1-0.2,0.4-0.2c0.4,0,0.7-0.1,1-0.1c0.5-0.1,0.7-0.7,0.8-1.5c0.1-1.1,0.1-3.2,0.1-5.7v-4.7c0-4.1,0-4.8-0.1-5.7
		c-0.1-0.9-0.3-1.3-1.1-1.5c-0.2-0.1-0.5-0.1-0.9-0.1c-0.3,0-0.5-0.1-0.5-0.2c0-0.2,0.2-0.2,0.6-0.2c1.3,0,2.9,0.1,3.7,0.1
		c0.6,0,2.6-0.1,3.6-0.1c0.4,0,0.6,0.1,0.6,0.2c0,0.2-0.2,0.2-0.5,0.2c-0.3,0-0.7,0-1,0.1c-0.7,0.1-0.9,0.6-1,1.5
		c-0.1,0.9-0.1,1.6-0.1,5.7V22.3z"/>
	<path id="XMLID_60_" class="st0" d="M244.5,23.3c-0.1,0-0.2,0.1-0.2,0.2l-1.4,3.7c-0.3,0.7-0.4,1.3-0.4,1.6c0,0.5,0.2,0.8,1.1,0.8
		h0.4c0.3,0,0.4,0.1,0.4,0.2c0,0.2-0.2,0.3-0.5,0.3c-0.9,0-2-0.1-2.8-0.1c-0.3,0-1.8,0.1-3.2,0.1c-0.3,0-0.5-0.1-0.5-0.3
		c0-0.2,0.1-0.2,0.3-0.2c0.2,0,0.6,0,0.8-0.1c1.2-0.2,1.7-1.1,2.3-2.4l6.7-16.6c0.3-0.8,0.5-1.1,0.7-1.1c0.2,0,0.4,0.2,0.7,0.9
		c0.6,1.5,4.9,12.1,6.6,16.2c1,2.4,1.8,2.8,2.3,2.9c0.4,0.1,0.8,0.1,1.1,0.1c0.2,0,0.3,0,0.3,0.2c0,0.2-0.2,0.3-1.2,0.3
		c-1,0-2.9,0-5-0.1c-0.5,0-0.8,0-0.8-0.2c0-0.2,0.1-0.2,0.4-0.2c0.2-0.1,0.4-0.3,0.2-0.6l-2.1-5.5c-0.1-0.1-0.1-0.2-0.3-0.2H244.5z
		 M250,21.9c0.1,0,0.2-0.1,0.1-0.2l-2.4-6.6c0-0.1-0.1-0.2-0.1-0.2s-0.1,0.1-0.2,0.2l-2.5,6.5c0,0.1,0,0.2,0.1,0.2H250z"/>
	<path id="XMLID_63_" class="st0" d="M260.4,29.8c-0.4-0.2-0.5-0.3-0.5-0.9c0-1.5,0.1-3.1,0.1-3.5c0-0.4,0.1-0.7,0.3-0.7
		c0.2,0,0.3,0.2,0.3,0.5c0,0.3,0.1,0.9,0.2,1.4c0.6,2,2.2,2.7,3.8,2.7c2.4,0,3.6-1.6,3.6-3c0-1.3-0.4-2.5-2.6-4.3l-1.2-1
		c-2.9-2.3-4-4.2-4-6.3c0-2.9,2.5-5,6.2-5c1.7,0,2.9,0.3,3.6,0.5c0.2,0.1,0.4,0.1,0.4,0.3c0,0.3-0.1,1.1-0.1,3.2
		c0,0.6-0.1,0.8-0.3,0.8c-0.2,0-0.3-0.2-0.3-0.5c0-0.2-0.1-1.1-0.7-1.8c-0.4-0.5-1.2-1.3-2.9-1.3c-2,0-3.2,1.1-3.2,2.8
		c0,1.2,0.6,2.2,2.8,3.8l0.7,0.6c3.2,2.4,4.4,4.3,4.4,6.8c0,1.5-0.6,3.4-2.5,4.6c-1.3,0.9-2.8,1.1-4.2,1.1
		C262.8,30.5,261.6,30.3,260.4,29.8z"/>
</g>
</svg>
