<?xml version="1.0" encoding="iso-8859-1"?>
<!-- Generator: Adobe Illustrator 15.0.0, SVG Export Plug-In . SVG Version: 6.00 Build 0)  -->
<!DOCTYPE svg PUBLIC "-//W3C//DTD SVG 1.1//EN" "http://www.w3.org/Graphics/SVG/1.1/DTD/svg11.dtd">
<svg version="1.1" id="Layer_2" xmlns="http://www.w3.org/2000/svg" xmlns:xlink="http://www.w3.org/1999/xlink" x="0px" y="0px"
	 width="41.375px" height="41.5px" viewBox="0 0 41.375 41.5" style="enable-background:new 0 0 41.375 41.5;" xml:space="preserve"
	>
<g>
	<g>
		<g>
			<g style="display:none;">
				<g style="display:inline;">
					<path style="fill:#8A0D2A;" d="M38.246,15.433l-3.595,13.779H13.083L8.89,15.433h29.057 M38.246,13.635H8.89
						c-0.6,0-1.079,0.119-1.438,0.6c-0.359,0.479-0.419,0.958-0.3,1.497l4.194,13.899c0.24,0.779,0.899,1.377,1.737,1.377h21.568
						c0.839,0,1.558-0.719,1.738-1.497l3.595-13.84c0.119-0.539,0-1.019-0.3-1.437C39.325,13.754,38.786,13.635,38.246,13.635
						L38.246,13.635z"/>
				</g>
				<circle style="display:inline;fill:#8A0D2A;" cx="16.379" cy="37.001" r="2.996"/>
				<circle style="display:inline;fill:#8A0D2A;" cx="3.797" cy="12.437" r="1.798"/>
				<circle style="display:inline;fill:#8A0D2A;" cx="30.757" cy="37.001" r="2.996"/>
			</g>
			<g style="display:none;">
				<g style="display:inline;">
					<path style="fill:#8A0D2A;" d="M36.629,11.838c0.778,0,1.378,0.599,1.138,1.378l-2.936,10.843
						c-0.12,0.54-0.599,0.959-1.138,0.959h-19.83c-0.479,0-0.899-0.42-1.139-0.899L8.291,13.396
						c-0.299-0.779,0.24-1.558,1.138-1.558h27.26 M36.629,10.639h-27.2c-0.779,0-1.558,0.24-1.977,0.899
						c-0.419,0.659-0.539,1.438-0.24,2.157l4.433,10.904c0.359,0.899,1.259,1.618,2.217,1.618h19.83
						c1.079,0,2.038-0.898,2.336-1.917l2.936-10.843c0.18-0.719,0.061-1.378-0.418-1.977C38.126,10.879,37.407,10.639,36.629,10.639
						L36.629,10.639z"/>
				</g>
				
					<polyline style="display:inline;fill:#8A0D2A;stroke:#FFFFFF;stroke-width:0.1932;stroke-linecap:round;stroke-linejoin:round;stroke-miterlimit:10;" points="
					33.753,30.71 13.982,30.71 12.185,25.617 7.392,11.838 3.797,8.842 				"/>
				<circle style="display:inline;fill:#8A0D2A;" cx="16.379" cy="37.001" r="2.996"/>
				<circle style="display:inline;fill:#8A0D2A;" cx="3.797" cy="8.842" r="1.797"/>
				<circle style="display:inline;fill:#8A0D2A;" cx="30.757" cy="37.001" r="2.996"/>
			</g>
			<g>
				<path style="fill:#8A0D2A;" d="M39.025,11.119c-0.599-0.72-1.438-1.078-2.396-1.078H10.028c-0.898,0-1.738,0.299-2.277,0.958
					L5.535,9.142c0-0.12,0.06-0.18,0.06-0.3c0-1.018-0.779-1.797-1.797-1.797S2,7.824,2,8.842c0,1.019,0.779,1.797,1.797,1.797
					c0.24,0,0.419-0.06,0.599-0.119l2.216,1.857l4.673,13.541l1.797,5.091c0.12,0.36,0.479,0.6,0.839,0.6h19.77
					c0.479,0,0.899-0.419,0.899-0.898c0-0.479-0.419-0.899-0.899-0.899H14.582l-1.079-2.995c0.12,0,0.24,0,0.3,0h19.831
					c1.318,0,2.516-1.079,2.875-2.337l2.936-10.844C39.804,12.677,39.624,11.838,39.025,11.119z M37.827,13.216l-2.936,10.843
					c-0.12,0.54-0.599,0.959-1.138,0.959H13.863c-0.479,0-0.899-0.42-1.139-0.899L8.89,13.396c-0.3-0.779,0.24-1.558,1.138-1.558
					h26.601C37.467,11.838,38.007,12.437,37.827,13.216z"/>
				<circle style="fill:#8A0D2A;" cx="16.379" cy="37.001" r="2.996"/>
				<circle style="fill:#8A0D2A;" cx="30.757" cy="37.001" r="2.996"/>
			</g>
		</g>
	</g>
</g>
</svg>
