<?xml version="1.0" encoding="utf-8"?>
<!-- Generator: Adobe Illustrator 15.0.0, SVG Export Plug-In . SVG Version: 6.00 Build 0)  -->
<!DOCTYPE svg PUBLIC "-//W3C//DTD SVG 1.1//EN" "http://www.w3.org/Graphics/SVG/1.1/DTD/svg11.dtd">
<svg version="1.1" id="Layer_2" xmlns="http://www.w3.org/2000/svg" xmlns:xlink="http://www.w3.org/1999/xlink" x="0px" y="0px"
	 width="41.375px" height="41.5px" viewBox="0 0 41.375 41.5" enable-background="new 0 0 41.375 41.5" xml:space="preserve">
<circle fill="none" stroke="#8A0D2A" stroke-width="1.8" stroke-miterlimit="10" cx="20.953" cy="20.75" r="19.423"/>
<path fill="#8A0D2A" stroke="#8A0D2A" stroke-width="0.5" stroke-miterlimit="10" d="M20.892,6.524
	c-0.139,0.015-0.268,0.078-0.365,0.179L7.917,19.614c-0.232,0.235-0.23,0.615,0.006,0.85c0.113,0.111,0.267,0.174,0.426,0.173h3.304
	v10.51c0,0.331,0.268,0.601,0.6,0.601h6.257h4.907h6.248c0.331,0,0.601-0.27,0.601-0.601v-10.51h3.302
	c0.332,0.003,0.604-0.264,0.605-0.596c0.001-0.159-0.062-0.313-0.174-0.427L21.39,6.703C21.26,6.569,21.077,6.503,20.892,6.524
	L20.892,6.524z M20.958,7.979L32.15,19.436h-2.486c-0.332,0-0.6,0.269-0.6,0.601v10.509H23.96v-3.002
	c0-0.464-0.203-0.858-0.506-1.191c-0.304-0.333-0.75-0.609-1.296-0.609h-2.401c-0.546,0-0.991,0.276-1.295,0.609
	c-0.302,0.333-0.506,0.728-0.506,1.191v3.002h-5.104V20.036c0-0.332-0.27-0.601-0.601-0.601H9.766L20.958,7.979L20.958,7.979z
	 M19.757,26.942h2.401c0.12,0,0.272,0.072,0.404,0.216c0.131,0.145,0.197,0.355,0.197,0.385v3.002h-3.603v-3.002
	c0-0.029,0.065-0.24,0.196-0.385C19.484,27.015,19.638,26.942,19.757,26.942z"/>
</svg>
