<?xml version="1.0" encoding="utf-8"?>
<!-- Generator: Adobe Illustrator 15.0.0, SVG Export Plug-In . SVG Version: 6.00 Build 0)  -->
<!DOCTYPE svg PUBLIC "-//W3C//DTD SVG 1.1//EN" "http://www.w3.org/Graphics/SVG/1.1/DTD/svg11.dtd">
<svg version="1.1" id="Layer_2" xmlns="http://www.w3.org/2000/svg" xmlns:xlink="http://www.w3.org/1999/xlink" x="0px" y="0px"
	 width="41.375px" height="41.5px" viewBox="0 0 41.375 41.5" enable-background="new 0 0 41.375 41.5" xml:space="preserve">
<circle fill="none" stroke="#8A0D2A" stroke-width="1.8" stroke-miterlimit="10" cx="20.967" cy="20.75" r="19.423"/>
<g>
	<path fill="#8A0D2A" stroke="#8A0D2A" stroke-width="0.5" stroke-miterlimit="10" d="M32.188,31.283V13.98h-4.513V8.714H14.884
		v5.266h-4.513v17.303H9.618v0.753H32.94v-0.753H32.188z M11.124,31.283V14.732h3.76v1.883h-2.63v0.753h2.635v2.258h-2.635v0.749
		h2.635v2.259h-2.635v0.753h2.635v2.259h-2.635v0.753h2.635v2.259h-2.635v0.754h2.635v1.882h-3.765V31.283z M19.021,31.283v-6.019
		h4.513v6.019H19.021z M26.922,31.283h-2.636v-6.772h-6.014v6.772h-2.636V9.467h11.285V31.283L26.922,31.283z M31.435,31.283h-3.76
		V29.4h2.635v-0.753h-2.635v-2.259h2.635v-0.753h-2.635v-2.258h2.635v-0.753h-2.635v-2.25h2.635v-0.753h-2.635v-2.259h2.635V16.61
		h-2.635v-1.882h3.76V31.283z"/>
	<path fill="#8A0D2A" stroke="#8A0D2A" stroke-width="0.5" stroke-miterlimit="10" d="M20.15,10.973h-3.008v3.007h3.008V10.973z
		 M19.396,13.227h-1.506v-1.506h1.506V13.227z"/>
	<path fill="#8A0D2A" stroke="#8A0D2A" stroke-width="0.5" stroke-miterlimit="10" d="M25.415,10.973h-3.007v3.007h3.007V10.973z
		 M24.662,13.227h-1.501v-1.506h1.507v1.506H24.662z"/>
	<path fill="#8A0D2A" stroke="#8A0D2A" stroke-width="0.5" stroke-miterlimit="10" d="M20.15,15.485h-3.008v3.008h3.008V15.485z
		 M19.396,17.739h-1.506v-1.505h1.506V17.739z"/>
	<path fill="#8A0D2A" stroke="#8A0D2A" stroke-width="0.5" stroke-miterlimit="10" d="M25.415,15.485h-3.007v3.008h3.007V15.485z
		 M24.662,17.739h-1.501v-1.505h1.507v1.505H24.662z"/>
	<path fill="#8A0D2A" stroke="#8A0D2A" stroke-width="0.5" stroke-miterlimit="10" d="M20.15,19.999h-3.008v3.007h3.008V19.999z
		 M19.396,22.258h-1.506v-1.507h1.506V22.258z"/>
	<path fill="#8A0D2A" stroke="#8A0D2A" stroke-width="0.5" stroke-miterlimit="10" d="M25.415,19.999h-3.007v3.007h3.007V19.999z
		 M24.662,22.258h-1.501v-1.507h1.507v1.507H24.662z"/>
</g>
</svg>
