<?xml version="1.0" encoding="utf-8"?>
<!-- Generator: Adobe Illustrator 15.0.0, SVG Export Plug-In . SVG Version: 6.00 Build 0)  -->
<!DOCTYPE svg PUBLIC "-//W3C//DTD SVG 1.1//EN" "http://www.w3.org/Graphics/SVG/1.1/DTD/svg11.dtd">
<svg version="1.1" id="Layer_2" xmlns="http://www.w3.org/2000/svg" xmlns:xlink="http://www.w3.org/1999/xlink" x="0px" y="0px"
	 width="41.375px" height="41.5px" viewBox="0 0 41.375 41.5" enable-background="new 0 0 41.375 41.5" xml:space="preserve">
<circle fill="none" stroke="#8A0D2A" stroke-width="1.8" stroke-miterlimit="10" cx="20.687" cy="20.75" r="19.423"/>
<path fill="#8A0D2A" d="M33.889,12.136c-0.147-0.148-0.352-0.231-0.559-0.231H8.046c-0.208,0-0.413,0.083-0.56,0.231
	c-0.147,0.146-0.231,0.351-0.231,0.559v15.616c0,0.209,0.084,0.41,0.231,0.56c0.148,0.146,0.352,0.23,0.56,0.23H33.33
	c0.211,0,0.41-0.082,0.559-0.23c0.149-0.15,0.23-0.348,0.23-0.56V12.694C34.119,12.486,34.035,12.282,33.889,12.136z M32.538,27.52
	H8.836V13.483h23.702V27.52z M31.285,15.483h-5.206v5.206h5.206V15.483z M22.176,26.41c0.286,0,0.515-0.23,0.515-0.516V14.74
	c0-0.287-0.229-0.517-0.515-0.517c-0.285,0-0.517,0.23-0.517,0.517v11.154C21.659,26.18,21.891,26.41,22.176,26.41z M9.719,17.115
	h9.108c0.287,0,0.518-0.23,0.518-0.517c0-0.284-0.23-0.517-0.518-0.517H9.719c-0.284,0-0.518,0.232-0.518,0.517
	C9.201,16.885,9.435,17.115,9.719,17.115z M9.719,19.346h9.109c0.284,0,0.517-0.23,0.517-0.516c0-0.284-0.232-0.518-0.517-0.518
	H9.719c-0.285,0-0.517,0.233-0.517,0.518C9.202,19.115,9.434,19.346,9.719,19.346z M18.828,20.546H9.719
	c-0.285,0-0.517,0.229-0.517,0.515s0.231,0.516,0.517,0.516h9.109c0.286,0,0.517-0.229,0.517-0.516
	C19.345,20.775,19.114,20.546,18.828,20.546z"/>
</svg>
