<?xml version="1.0" encoding="utf-8"?>
<!-- Generator: Adobe Illustrator 15.0.0, SVG Export Plug-In . SVG Version: 6.00 Build 0)  -->
<!DOCTYPE svg PUBLIC "-//W3C//DTD SVG 1.1//EN" "http://www.w3.org/Graphics/SVG/1.1/DTD/svg11.dtd">
<svg version="1.1" id="Layer_2" xmlns="http://www.w3.org/2000/svg" xmlns:xlink="http://www.w3.org/1999/xlink" x="0px" y="0px"
	 width="41.375px" height="41.5px" viewBox="0 0 41.375 41.5" enable-background="new 0 0 41.375 41.5" xml:space="preserve">
<circle fill="none" stroke="#8A0D2A" stroke-width="1.8" stroke-miterlimit="10" cx="20.687" cy="20.75" r="19.423"/>
<path fill="#8A0D2A" d="M19.629,19.211c-0.259-0.46-0.848-0.623-1.301-0.359l-0.926,0.527V18.31c0-0.527-0.427-0.953-0.955-0.953
	c-0.526,0-0.953,0.425-0.953,0.953v1.069l-0.928-0.527c-0.459-0.257-1.042-0.102-1.299,0.359c-0.257,0.46-0.101,1.042,0.359,1.3
	l0.893,0.506l-0.893,0.509c-0.46,0.256-0.622,0.845-0.359,1.298c0.257,0.461,0.847,0.623,1.299,0.359l0.928-0.527v1.068
	c0,0.527,0.427,0.954,0.953,0.954c0.528,0,0.955-0.427,0.955-0.954v-1.068l0.926,0.527c0.46,0.258,1.042,0.102,1.301-0.359
	c0.255-0.46,0.1-1.042-0.359-1.298l-0.894-0.509l0.894-0.506C19.729,20.253,19.893,19.664,19.629,19.211z"/>
<path fill="#8A0D2A" d="M10.622,19.211c-0.256-0.46-0.846-0.623-1.299-0.359L8.39,19.373v-1.069c0-0.527-0.426-0.954-0.953-0.954
	c-0.528,0-0.955,0.426-0.955,0.954v1.069l-0.927-0.527c-0.459-0.257-1.041-0.102-1.298,0.358c-0.258,0.46-0.101,1.042,0.357,1.299
	l0.894,0.508l-0.894,0.507c-0.458,0.258-0.623,0.846-0.357,1.299c0.257,0.461,0.846,0.624,1.298,0.358l0.927-0.526v1.067
	c0,0.527,0.427,0.955,0.955,0.955c0.527,0,0.953-0.42,0.953-0.947v-1.068l0.928,0.527c0.459,0.258,1.042,0.102,1.299-0.359
	c0.257-0.46,0.102-1.042-0.358-1.298l-0.894-0.509l0.894-0.506C10.718,20.253,10.88,19.664,10.622,19.211z"/>
<path fill="#8A0D2A" d="M36.612,21.403h-5.863c-0.463,0-0.838,0.427-0.838,0.954s0.375,0.953,0.838,0.953h5.863
	c0.464,0,0.839-0.426,0.839-0.953S37.076,21.403,36.612,21.403z"/>
<path fill="#8A0D2A" d="M28.639,19.211C28.639,19.211,28.639,19.204,28.639,19.211C28.639,19.204,28.639,19.204,28.639,19.211
	c-0.263-0.46-0.845-0.623-1.305-0.359l-0.927,0.527v-1.061c0-0.528-0.427-0.954-0.955-0.954s-0.954,0.426-0.954,0.954v1.061
	l-0.926-0.527c-0.46-0.264-1.042-0.102-1.3,0.359l0,0l0,0c-0.256,0.46-0.101,1.042,0.358,1.3l0.896,0.506l-0.896,0.509
	c-0.459,0.256-0.621,0.845-0.358,1.298l0,0l0,0c0,0.007,0.008,0.007,0.015,0.013c0.034,0.063,0.081,0.116,0.122,0.164
	c0.02,0.02,0.04,0.041,0.06,0.061c0.035,0.027,0.068,0.054,0.108,0.081c0.028,0.021,0.054,0.033,0.082,0.055
	c0.041,0.02,0.089,0.041,0.128,0.053c0.055,0.021,0.109,0.035,0.163,0.041c0.033,0.008,0.067,0.014,0.102,0.014
	c0.02,0,0.032,0.007,0.054,0.007c0.027,0,0.048-0.007,0.073-0.007c0.028,0,0.056-0.006,0.082-0.014
	c0.041-0.006,0.089-0.013,0.129-0.027c0.021-0.006,0.047-0.02,0.067-0.025c0.04-0.015,0.082-0.027,0.123-0.049l0.927-0.527v1.063
	c0,0.527,0.426,0.954,0.953,0.954s0.953-0.427,0.953-0.954v-1.063l0.927,0.527c0.041,0.021,0.081,0.034,0.129,0.055
	c0.021,0.006,0.041,0.02,0.062,0.027c0.04,0.014,0.087,0.02,0.128,0.027c0.028,0.006,0.055,0.006,0.081,0.006
	c0.028,0,0.048,0.007,0.074,0.007c0.021,0,0.034-0.007,0.056-0.007c0.033,0,0.066-0.006,0.101-0.014
	c0.055-0.006,0.103-0.02,0.155-0.041c0.048-0.012,0.089-0.033,0.136-0.053c0.027-0.014,0.054-0.034,0.081-0.048
	c0.041-0.026,0.075-0.055,0.109-0.081c0.02-0.02,0.039-0.035,0.06-0.061c0.047-0.048,0.096-0.108,0.128-0.171
	c0-0.006,0.008-0.006,0.008-0.013l0,0l0,0c0.257-0.46,0.102-1.042-0.358-1.298l-0.893-0.509l0.893-0.506
	C28.741,20.253,28.903,19.664,28.639,19.211z"/>
</svg>
