<?xml version="1.0" encoding="iso-8859-1"?>
<!-- Generator: Adobe Illustrator 15.0.0, SVG Export Plug-In . SVG Version: 6.00 Build 0)  -->
<!DOCTYPE svg PUBLIC "-//W3C//DTD SVG 1.1//EN" "http://www.w3.org/Graphics/SVG/1.1/DTD/svg11.dtd">
<svg version="1.1" id="Layer_2" xmlns="http://www.w3.org/2000/svg" xmlns:xlink="http://www.w3.org/1999/xlink" x="0px" y="0px"
	 width="41.375px" height="41.5px" viewBox="0 0 41.375 41.5" style="enable-background:new 0 0 41.375 41.5;" xml:space="preserve"
	>
<path style="fill:#8B0D2A;" d="M11.973,38.681c-0.108,0-0.217-0.033-0.308-0.1c-0.161-0.117-0.242-0.314-0.208-0.512l1.619-9.432
	l-6.853-6.679c-0.143-0.14-0.194-0.348-0.132-0.536c0.062-0.189,0.226-0.328,0.423-0.356l9.47-1.377l4.235-8.581
	c0.088-0.18,0.271-0.292,0.469-0.292l0,0c0.2,0,0.381,0.112,0.469,0.292l4.235,8.581l9.47,1.377
	c0.198,0.028,0.361,0.166,0.423,0.356c0.062,0.188,0.011,0.397-0.132,0.536l-6.853,6.68l1.618,9.431
	c0.033,0.197-0.047,0.395-0.208,0.512c-0.161,0.119-0.375,0.135-0.552,0.041l-8.47-4.453l-8.471,4.453
	C12.14,38.662,12.057,38.681,11.973,38.681z M7.713,21.949l6.29,6.131c0.123,0.121,0.18,0.294,0.15,0.464l-1.485,8.657l7.775-4.086
	c0.152-0.082,0.334-0.082,0.488,0l7.775,4.086l-1.485-8.657c-0.029-0.17,0.027-0.343,0.15-0.464l6.29-6.131l-8.693-1.263
	c-0.17-0.025-0.317-0.132-0.394-0.286l-3.888-7.877L16.8,20.401c-0.077,0.154-0.224,0.26-0.394,0.285L7.713,21.949z"/>
</svg>
