<?xml version="1.0" encoding="iso-8859-1"?>
<!-- Generator: Adobe Illustrator 15.0.0, SVG Export Plug-In . SVG Version: 6.00 Build 0)  -->
<!DOCTYPE svg PUBLIC "-//W3C//DTD SVG 1.1//EN" "http://www.w3.org/Graphics/SVG/1.1/DTD/svg11.dtd">
<svg version="1.1" id="Layer_2" xmlns="http://www.w3.org/2000/svg" xmlns:xlink="http://www.w3.org/1999/xlink" x="0px" y="0px"
	 width="41.375px" height="41.5px" viewBox="0 0 41.375 41.5" style="enable-background:new 0 0 41.375 41.5;" xml:space="preserve"
	>
<path style="fill:#8A0D2A;" d="M32.81,37.422c1.762,0,3.19-1.427,3.19-3.189c0-1.762-1.428-3.189-3.19-3.189
	c-1.541,0-2.83,1.095-3.125,2.552H7.931v1.275h21.754C29.979,36.328,31.269,37.422,32.81,37.422 M30.895,34.233
	c0-1.055,0.86-1.915,1.915-1.915c1.055,0,1.911,0.859,1.911,1.915c0,1.055-0.856,1.915-1.911,1.915
	C31.755,36.148,30.895,35.288,30.895,34.233"/>
<path style="fill:#8A0D2A;" d="M11.692,11.904h21.754v-1.275H11.692c-0.295-1.457-1.583-2.552-3.126-2.552
	c-1.761,0-3.19,1.427-3.19,3.189c0,1.762,1.43,3.19,3.19,3.19C10.109,14.457,11.396,13.361,11.692,11.904 M6.651,11.267
	c0-1.055,0.861-1.915,1.915-1.915c1.056,0,1.913,0.86,1.913,1.915c0,1.055-0.857,1.915-1.913,1.915
	C7.512,13.181,6.651,12.322,6.651,11.267"/>
<path style="fill:#8A0D2A;" d="M23.814,23.388h9.632v-1.276h-9.632c-0.295-1.456-1.584-2.551-3.126-2.551
	c-1.542,0-2.831,1.095-3.126,2.551H7.931v1.276h9.631c0.295,1.457,1.584,2.552,3.126,2.552
	C22.23,25.939,23.519,24.845,23.814,23.388 M18.775,22.75c0-1.055,0.857-1.914,1.913-1.914c1.056,0,1.915,0.859,1.915,1.914
	c0,1.055-0.858,1.913-1.915,1.913C19.632,24.664,18.775,23.805,18.775,22.75"/>
</svg>
