<?xml version="1.0" encoding="iso-8859-1"?>
<!-- Generator: Adobe Illustrator 15.0.0, SVG Export Plug-In . SVG Version: 6.00 Build 0)  -->
<!DOCTYPE svg PUBLIC "-//W3C//DTD SVG 1.1//EN" "http://www.w3.org/Graphics/SVG/1.1/DTD/svg11.dtd">
<svg version="1.1" id="Layer_2" xmlns="http://www.w3.org/2000/svg" xmlns:xlink="http://www.w3.org/1999/xlink" x="0px" y="0px"
	 width="41.375px" height="41.5px" viewBox="0 0 41.375 41.5" style="enable-background:new 0 0 41.375 41.5;" xml:space="preserve"
	>
<path style="fill:#8A0D2A;" d="M36.881,35.981l-9.124-9.125c1.834-2.205,2.938-5.039,2.938-8.13c0-7.028-5.697-12.724-12.726-12.724
	S5.244,11.698,5.244,18.726s5.697,12.726,12.726,12.726c3.089,0,5.925-1.104,8.128-2.938l9.125,9.126L36.881,35.981z M6.584,18.726
	c0-6.278,5.104-11.385,11.385-11.385c6.277,0,11.385,5.106,11.385,11.385c0,6.279-5.108,11.385-11.385,11.385
	C11.688,30.111,6.584,25.005,6.584,18.726"/>
</svg>
