<?xml version="1.0" encoding="utf-8"?>
<!-- Generator: Adobe Illustrator 15.0.0, SVG Export Plug-In . SVG Version: 6.00 Build 0)  -->
<!DOCTYPE svg PUBLIC "-//W3C//DTD SVG 1.1//EN" "http://www.w3.org/Graphics/SVG/1.1/DTD/svg11.dtd">
<svg version="1.1" id="Layer_2" xmlns="http://www.w3.org/2000/svg" xmlns:xlink="http://www.w3.org/1999/xlink" x="0px" y="0px"
	 width="41.375px" height="41.5px" viewBox="0 0 41.375 41.5" enable-background="new 0 0 41.375 41.5" xml:space="preserve">
<circle fill="none" stroke="#8A0D2A" stroke-width="1.8" stroke-miterlimit="10" cx="20.688" cy="20.75" r="19.423"/>
<g>
	<path fill="#8A0D2A" d="M23.986,27.865L23.986,27.865c-0.201,0.27-0.134,0.606,0.135,0.74c0.337,0.202,0.472,0.404,0.472,0.539
		c0,0.538-1.549,1.279-3.838,1.279s-3.837-0.741-3.837-1.279c0-0.135,0.134-0.337,0.472-0.539c0.269-0.134,0.269-0.471,0.134-0.74
		l0,0c-0.134-0.202-0.472-0.27-0.673-0.135c-0.606,0.404-0.942,0.875-0.942,1.414c0,1.48,2.424,2.289,4.915,2.289
		c2.423,0,4.847-0.809,4.847-2.289c0-0.539-0.337-1.01-0.942-1.414C24.391,27.596,24.121,27.663,23.986,27.865z"/>
	<path fill="#8A0D2A" d="M20.688,10.563c-4.04,0-7.339,3.298-7.339,7.338c0,2.626,2.895,6.8,5.318,9.896
		c0.27,0.337,0.539,0.674,0.808,0.942c0.337,0.337,0.741,0.606,1.213,0.606c0.471,0,0.941-0.202,1.211-0.606
		c0.202-0.269,0.472-0.605,0.809-0.942c2.423-3.03,5.318-7.271,5.318-9.896C28.026,13.862,24.728,10.563,20.688,10.563z
		 M20.688,20.123c-1.549,0-2.828-1.279-2.828-2.828c0-1.548,1.279-2.827,2.828-2.827c1.548,0,2.827,1.279,2.827,2.827
		C23.516,18.844,22.236,20.123,20.688,20.123z"/>
</g>
</svg>
