<?xml version="1.0" encoding="utf-8"?>
<!-- Generator: Adobe Illustrator 15.0.0, SVG Export Plug-In . SVG Version: 6.00 Build 0)  -->
<!DOCTYPE svg PUBLIC "-//W3C//DTD SVG 1.1//EN" "http://www.w3.org/Graphics/SVG/1.1/DTD/svg11.dtd">
<svg version="1.1" id="Layer_2" xmlns="http://www.w3.org/2000/svg" xmlns:xlink="http://www.w3.org/1999/xlink" x="0px" y="0px"
	 width="41.375px" height="41.5px" viewBox="0 0 41.375 41.5" enable-background="new 0 0 41.375 41.5" xml:space="preserve">
<circle fill="none" stroke="#8A0D2A" stroke-width="1.8" stroke-miterlimit="10" cx="20.687" cy="20.75" r="19.423"/>
<path fill="#8A0D2A" d="M30.442,18.878l-3.645-1.121v-6.504c0-0.785-0.616-1.401-1.401-1.401h-2.074
	c-0.786,0-1.402,0.616-1.402,1.401V16.3l-1.737-0.505V7.776c0-0.784-0.617-1.401-1.402-1.401h-2.075
	c-0.784,0-1.401,0.617-1.401,1.401v6.505l-2.018-0.617c-0.281-0.112-0.562-0.168-0.842-0.168c-1.346,0-2.411,1.065-2.411,2.41v5.271
	v7.009c0,1.346,1.065,2.411,2.411,2.411h5.271l0,0h6.561l0,0h5.271c1.346,0,2.41-1.065,2.41-2.411v-7.009l0,0
	C32.068,20.168,31.396,19.271,30.442,18.878z M30.666,28.186c0,0.617-0.504,1.065-1.064,1.065h-3.084h-2.187h-2.187h-2.243h-2.188
	h-2.186h-3.084c-0.617,0-1.065-0.504-1.065-1.065V21.85h3.925h1.346h2.131h1.345h1.738h1.346h2.131h1.346h3.925v6.336H30.666z
	 M11.491,15.906c0-0.616,0.504-1.064,1.065-1.064c0.111,0,0.225,0,0.393,0.056l2.411,0.729l1.346,0.448l2.13,0.673l1.347,0.393
	l1.737,0.504l1.346,0.449l2.131,0.673l1.346,0.393l3.195,1.009c0.168,0.056,0.337,0.169,0.449,0.336h-3.645h-1.346h-2.131H21.92
	h-1.737h-1.347h-2.13H15.36h-3.926v-4.598H11.491z M23.322,11.197h2.13v6.167l-2.13-0.673V11.197z M16.762,7.721h2.13v7.569
	l-2.13-0.673V7.721z"/>
<path fill="#8A0D2A" d="M26.125,24.093c-0.393,0-0.673,0.28-0.673,0.673v1.738c0,0.393,0.28,0.673,0.673,0.673
	s0.673-0.28,0.673-0.673v-1.738C26.798,24.43,26.518,24.093,26.125,24.093z"/>
<path fill="#8A0D2A" d="M22.593,24.093c-0.393,0-0.673,0.28-0.673,0.673v1.738c0,0.393,0.28,0.673,0.673,0.673
	s0.673-0.28,0.673-0.673v-1.738C23.266,24.43,22.985,24.093,22.593,24.093z"/>
<path fill="#8A0D2A" d="M19.565,24.093c-0.393,0-0.674,0.28-0.674,0.673v1.738c0,0.393,0.281,0.673,0.674,0.673
	s0.673-0.28,0.673-0.673v-1.738C20.238,24.43,19.901,24.093,19.565,24.093z"/>
<path fill="#8A0D2A" d="M16.033,24.093c-0.393,0-0.673,0.28-0.673,0.673v1.738c0,0.393,0.28,0.673,0.673,0.673
	c0.392,0,0.672-0.28,0.672-0.673v-1.738C16.705,24.43,16.425,24.093,16.033,24.093z"/>
</svg>
