<?xml version="1.0" encoding="utf-8"?>
<!-- Generator: Adobe Illustrator 15.0.0, SVG Export Plug-In . SVG Version: 6.00 Build 0)  -->
<!DOCTYPE svg PUBLIC "-//W3C//DTD SVG 1.1//EN" "http://www.w3.org/Graphics/SVG/1.1/DTD/svg11.dtd">
<svg version="1.1" id="Layer_2" xmlns="http://www.w3.org/2000/svg" xmlns:xlink="http://www.w3.org/1999/xlink" x="0px" y="0px"
	 width="41.375px" height="41.5px" viewBox="0 0 41.375 41.5" enable-background="new 0 0 41.375 41.5" xml:space="preserve">
<g>
	<path fill="#8A0D2A" d="M26.328,8.992c-0.103,0.023-0.195,0.063-0.281,0.117c-0.671-0.522-1.528-1.129-2.643-1.925l-0.087-0.062
		c-1.13-0.81-1.994-1.287-2.993-1.419c-1.006-0.124-1.981,0.118-3.314,0.749c-0.748,0.351-1.395,0.67-1.964,0.95
		c-2.73,1.35-3.454,1.708-7.867,1.568C6.53,8.953,5.993,9.46,5.977,10.106c-0.014,0.639,0.493,1.177,1.132,1.193
		c5.004,0.157,5.832-0.25,8.967-1.808c0.544-0.266,1.168-0.578,1.933-0.936c0.912-0.428,1.521-0.608,2.027-0.538
		c0.521,0.07,1.099,0.405,1.934,0.997l0.085,0.063c2.675,1.911,3.681,2.628,4.171,3.556c0.709,1.317,0.921,2.221,1.114,3.056
		c0.204,0.872,0.392,1.684,0.984,2.767c0.233,0.421,0.537,0.889,0.935,1.427c0.383,0.506,0.852,1.069,1.435,1.707
		c0.366,0.397,0.742,0.749,1.1,1.084l0.795-0.852l-0.795,0.86c0.016,0.015,0.038,0.028,0.054,0.045
		c0.852,0.797,1.568,1.49,1.357,2.401L33.033,25.9c-0.211,0.92-0.351,1.574-0.633,1.777c-0.358,0.266-1.315,0.56-2.407,0.912
		c-1.007,0.311-2.113,0.66-3.182,1.13c-2.097,0.928-3.088,1.683-3.82,2.251c-0.422,0.321-0.726,0.563-1.131,0.671
		c-1.637,0.446-2.558,0.344-3.251,0.273c-1.583-0.162-2.371-0.24-4.437,2.293c-0.125,0.154-0.296,0.327-0.499,0.497
		c-0.226,0.188-0.491,0.383-0.788,0.57c-0.537,0.342-0.701,1.068-0.351,1.605c0.344,0.547,1.062,0.701,1.607,0.357
		c0.374-0.24,0.717-0.489,1.03-0.746c0.319-0.274,0.599-0.548,0.817-0.819c1.265-1.552,1.638-1.513,2.379-1.435
		c0.888,0.093,2.065,0.21,4.102-0.344c0.841-0.227,1.31-0.584,1.948-1.082c0.632-0.483,1.49-1.146,3.33-1.957
		c0.904-0.397,1.98-0.732,2.946-1.037c1.286-0.405,2.41-0.764,3.08-1.256c0.99-0.718,1.217-1.722,1.537-3.164
		c0.022-0.109,0.045-0.219,0.162-0.733c0.531-2.212-0.646-3.352-2.025-4.644c-0.025-0.017-0.04-0.032-0.056-0.056v0.008
		l-0.008-0.008v0.008c-0.328-0.305-0.663-0.618-0.974-0.959c-0.523-0.569-0.945-1.076-1.287-1.528
		c-0.313-0.428-0.562-0.804-0.757-1.155c-0.437-0.801-0.592-1.456-0.756-2.167c-0.094-0.421-0.195-0.857-0.352-1.348
		c0.343-0.225,0.671-0.483,0.967-0.779c0.624-0.616,1.131-1.396,1.498-2.424c0.163-0.351,0.038-0.78-0.305-0.99l0,0
		c-0.795-0.492-1.622-0.741-2.488-0.826C28.098,8.719,27.24,8.805,26.328,8.992L26.328,8.992z M27.466,10.38
		c0.468-0.056,0.904-0.071,1.325-0.031c0.421,0.038,0.836,0.132,1.24,0.304c-0.249,0.522-0.554,0.936-0.904,1.286
		c-0.141,0.141-0.288,0.266-0.444,0.382c-0.117-0.25-0.25-0.514-0.397-0.795C28.059,11.104,27.801,10.738,27.466,10.38L27.466,10.38
		z M11.021,13.014c-0.421,0.063-0.724,0.452-0.662,0.881c0.055,0.421,0.453,0.717,0.874,0.662c0.88-0.124,1.692-0.155,2.433-0.047
		c0.506,0.078,0.997,0.234,1.465,0.477c-0.328,0.615-0.709,1.091-1.146,1.472c-0.576,0.508-1.255,0.858-2.011,1.131
		c-0.398,0.147-0.607,0.592-0.468,0.997c0.149,0.398,0.592,0.608,0.999,0.468c0.927-0.335,1.769-0.78,2.502-1.427
		c0.733-0.639,1.349-1.474,1.825-2.595c0.171-0.335,0.07-0.757-0.25-0.983l-0.453,0.639l0.453-0.639
		c-0.842-0.592-1.731-0.927-2.675-1.076C12.988,12.835,12.036,12.874,11.021,13.014L11.021,13.014z"/>
</g>
</svg>
