<?xml version="1.0" encoding="iso-8859-1"?>
<!-- Generator: Adobe Illustrator 15.0.0, SVG Export Plug-In . SVG Version: 6.00 Build 0)  -->
<!DOCTYPE svg PUBLIC "-//W3C//DTD SVG 1.1//EN" "http://www.w3.org/Graphics/SVG/1.1/DTD/svg11.dtd">
<svg version="1.1" id="Layer_2" xmlns="http://www.w3.org/2000/svg" xmlns:xlink="http://www.w3.org/1999/xlink" x="0px" y="0px"
	 width="41.375px" height="41.5px" viewBox="0 0 41.375 41.5" style="enable-background:new 0 0 41.375 41.5;" xml:space="preserve"
	>
<path style="fill:#8A0D2A;" d="M40.6,22.706c0-0.005,0-0.011,0-0.017c0.008-0.162,0.015-0.325,0.019-0.487
	c0.005-0.171,0.007-0.343,0.007-0.515s-0.002-0.344-0.007-0.514c-0.066-2.641-0.644-5.193-1.722-7.593
	c-0.013-0.027-0.028-0.053-0.043-0.079C35.733,6.649,28.82,1.874,20.813,1.874c-8.001,0-14.911,4.769-18.035,11.614
	c-0.018,0.03-0.036,0.06-0.05,0.093c-1.008,2.247-1.578,4.627-1.702,7.088c0,0.005,0,0.011,0,0.017
	c-0.008,0.162-0.015,0.324-0.019,0.487C1.002,21.343,1,21.515,1,21.687s0.002,0.344,0.007,0.514
	c0.066,2.641,0.645,5.193,1.722,7.593c0.013,0.027,0.027,0.053,0.042,0.079c2.368,5.199,6.918,9.2,12.474,10.83
	c0.03,0.009,0.06,0.019,0.09,0.027c0.099,0.028,0.198,0.055,0.297,0.082c0.068,0.019,0.136,0.038,0.204,0.056
	c0.062,0.016,0.124,0.031,0.186,0.046c0.104,0.026,0.207,0.052,0.311,0.076c0.027,0.006,0.055,0.012,0.082,0.018
	c1.262,0.288,2.563,0.453,3.887,0.486c0.17,0.004,0.34,0.006,0.511,0.006s0.341-0.002,0.511-0.006
	c1.329-0.034,2.633-0.199,3.899-0.489c0.022-0.005,0.045-0.01,0.068-0.015c0.108-0.025,0.215-0.052,0.323-0.079
	c0.058-0.014,0.115-0.028,0.173-0.043c0.073-0.019,0.144-0.039,0.216-0.059c0.095-0.025,0.19-0.051,0.285-0.079
	c0.034-0.01,0.068-0.021,0.103-0.031c5.545-1.63,10.088-5.624,12.457-10.813c0.018-0.03,0.036-0.06,0.05-0.093
	C39.906,27.547,40.477,25.167,40.6,22.706z M20.813,3.597c9.818,0,17.834,7.862,18.084,17.62c0.003,0.156,0.006,0.313,0.006,0.47
	c0,0.157-0.002,0.313-0.006,0.47c-0.104,4.007-1.516,7.694-3.825,10.649c-1.06-2.469-4.185-4.537-7.8-5.725
	c1.017-2.276,1.521-4.869,1.521-7.547c0-6.381-2.989-9.476-7.981-9.476c-4.992,0-7.981,3.155-7.981,9.476
	c0,2.679,0.504,5.269,1.522,7.547c-3.615,1.188-6.741,3.256-7.8,5.725c-2.309-2.955-3.721-6.642-3.824-10.649
	c-0.004-0.156-0.006-0.313-0.006-0.47c0-0.157,0.002-0.313,0.006-0.47C2.979,11.459,10.996,3.597,20.813,3.597z M24.655,39.365
	c-0.072,0.016-0.144,0.032-0.217,0.047c-0.112,0.023-0.226,0.045-0.34,0.066c-0.031,0.006-0.063,0.012-0.095,0.018
	c-0.135,0.024-0.27,0.046-0.406,0.067c-0.012,0.002-0.024,0.004-0.037,0.006c-0.143,0.021-0.288,0.042-0.432,0.061
	c-0.006,0-0.012,0.001-0.017,0.002c-0.144,0.018-0.289,0.035-0.434,0.05c-0.007,0-0.013,0.001-0.021,0.002
	c-0.138,0.014-0.276,0.026-0.415,0.037c-0.014,0.001-0.029,0.003-0.044,0.004c-0.129,0.009-0.26,0.018-0.39,0.024
	c-0.024,0.002-0.047,0.003-0.071,0.005c-0.125,0.006-0.25,0.01-0.374,0.014c-0.03,0.001-0.06,0.002-0.089,0.003
	c-0.154,0.003-0.308,0.006-0.463,0.006c-0.155,0-0.309-0.002-0.463-0.006c-0.029-0.001-0.06-0.002-0.089-0.003
	c-0.125-0.004-0.25-0.008-0.374-0.014c-0.024-0.001-0.048-0.003-0.072-0.005c-0.129-0.007-0.26-0.015-0.389-0.024
	c-0.016-0.001-0.031-0.003-0.046-0.004c-0.138-0.011-0.275-0.022-0.413-0.037c-0.008-0.001-0.015-0.001-0.023-0.002
	c-0.144-0.015-0.288-0.031-0.431-0.049c-0.006-0.001-0.013-0.002-0.02-0.003c-0.144-0.019-0.286-0.039-0.428-0.06
	c-0.014-0.002-0.028-0.005-0.042-0.007c-0.134-0.021-0.268-0.042-0.4-0.066c-0.034-0.006-0.068-0.013-0.102-0.02
	c-0.111-0.021-0.222-0.042-0.333-0.064c-0.076-0.016-0.151-0.033-0.227-0.049c-0.066-0.015-0.134-0.029-0.2-0.044
	c-3.336-0.769-6.385-2.49-8.851-5.035c0.283-2.431,3.706-4.639,7.618-5.771c1.366,1.36,3.133,2.219,5.286,2.219
	c2.152,0,3.919-0.858,5.284-2.219c3.912,1.132,7.335,3.34,7.619,5.771c-2.467,2.544-5.516,4.265-8.852,5.035
	C24.796,39.335,24.726,39.35,24.655,39.365z M14.826,19.534c0-3.853,1.463-7.752,5.987-7.752c4.524,0,5.987,3.9,5.987,7.752
	c0,3.935-1.234,9.476-5.987,9.476S14.826,23.469,14.826,19.534z"/>
</svg>
